<?xml version="1.0" ?><svg enable-background="new 0 0 64 64" version="1.1" viewBox="0 0 64 64" xml:space="preserve" xmlns="http://www.w3.org/2000/svg" xmlns:xlink="http://www.w3.org/1999/xlink"><g id="Layer_1"/><g id="Layer_2"><g><path d="M39.478,36.159h-6.957v-9.804c0.22-0.11,0.431-0.246,0.614-0.43l8.189-8.189c1.051-1.051,1.653-2.496,1.653-3.967    c0-1.499-0.587-2.911-1.653-3.978c-2.176-2.176-5.732-2.178-7.936,0.002l-1.667,1.678c-0.131,0.131-0.349,0.13-0.478,0.001    l-1.68-1.681c-1.061-1.06-2.469-1.643-3.967-1.643c-1.392,0-2.721,0.511-3.737,1.435c-1.531,1.37-2.146,3.517-1.604,5.603    c0.139,0.534,0.684,0.86,1.219,0.717c0.535-0.139,0.855-0.685,0.717-1.219c-0.353-1.358,0.032-2.742,1.008-3.615    c1.359-1.232,3.64-1.177,4.951,0.137l1.681,1.682c0.91,0.908,2.392,0.909,3.306-0.003l1.664-1.675    c1.418-1.402,3.709-1.404,5.109-0.004c0.679,0.679,1.067,1.612,1.067,2.563c0,0.944-0.389,1.874-1.067,2.553l-8.189,8.189    c-0.129,0.129-0.348,0.129-0.477,0l-7.838-7.838c-0.39-0.392-1.024-0.396-1.414-0.004c-0.392,0.39-0.394,1.023-0.004,1.414    l7.842,7.842c0.205,0.205,0.441,0.357,0.69,0.47v9.764h-7.033c-1.555,0-2.82,1.27-2.82,2.83c0,1.259,0.835,2.315,1.976,2.677    l1.311,12.423c0.122,1.004,0.975,1.761,1.983,1.761h11.09c1.009,0,1.861-0.757,1.984-1.775l1.089-10.308    c0.059-0.55-0.34-1.042-0.889-1.1c-0.557-0.062-1.043,0.34-1.1,0.889L37.028,53.85l-11.086,0.014L24.669,41.81h14.809    c1.555,0,2.82-1.266,2.82-2.82C42.299,37.429,41.033,36.159,39.478,36.159z M39.478,39.81h-15.99c-0.46,0-0.82-0.36-0.82-0.82    c0-0.458,0.368-0.83,0.82-0.83h15.99c0.452,0,0.82,0.372,0.82,0.83C40.299,39.449,39.938,39.81,39.478,39.81z"/><path d="M35.847,25.097c-1.98,1.395-3.172,3.676-3.188,6.099c-0.006,0.816,0.508,1.546,1.28,1.815    c0.807,0.281,1.646,0.419,2.479,0.419c1.533,0,3.053-0.466,4.332-1.367h0.001c1.94-1.366,3.131-3.602,3.185-5.979    c0.019-0.893-0.537-1.683-1.384-1.966C40.294,23.364,37.789,23.729,35.847,25.097z M39.6,30.428    c-1.433,1.008-3.275,1.274-4.94,0.716c0.032-1.756,0.902-3.4,2.338-4.412c1.426-1.001,3.266-1.268,4.938-0.691    C41.897,27.784,41.024,29.425,39.6,30.428z"/></g></g></svg>